<mxfile host="app.diagrams.net" agent="Mozilla/5.0 (Macintosh; Intel Mac OS X 10_15_7) AppleWebKit/537.36 (KHTML, like Gecko) Chrome/135.0.0.0 Safari/537.36" version="26.2.14">
  <diagram id="C5RBs43oDa-KdzZeNtuy" name="Page-1">
    <mxGraphModel dx="996" dy="642" grid="1" gridSize="10" guides="1" tooltips="1" connect="1" arrows="1" fold="1" page="1" pageScale="1" pageWidth="827" pageHeight="1169" background="light-dark(#FFFFFF,#121212)" math="0" shadow="0">
      <root>
        <mxCell id="WIyWlLk6GJQsqaUBKTNV-0" />
        <mxCell id="WIyWlLk6GJQsqaUBKTNV-1" parent="WIyWlLk6GJQsqaUBKTNV-0" />
        <mxCell id="WIyWlLk6GJQsqaUBKTNV-2" value="" style="rounded=0;html=1;jettySize=auto;orthogonalLoop=1;fontSize=11;endArrow=block;endFill=0;endSize=8;strokeWidth=1;shadow=0;labelBackgroundColor=none;edgeStyle=orthogonalEdgeStyle;" parent="WIyWlLk6GJQsqaUBKTNV-1" source="WIyWlLk6GJQsqaUBKTNV-3" target="WIyWlLk6GJQsqaUBKTNV-6" edge="1">
          <mxGeometry relative="1" as="geometry" />
        </mxCell>
        <mxCell id="WIyWlLk6GJQsqaUBKTNV-3" value="Admin&lt;br&gt;/admin/" style="rounded=1;whiteSpace=wrap;html=1;fontSize=12;glass=0;strokeWidth=1;shadow=0;" parent="WIyWlLk6GJQsqaUBKTNV-1" vertex="1">
          <mxGeometry x="30" y="180" width="120" height="40" as="geometry" />
        </mxCell>
        <mxCell id="WIyWlLk6GJQsqaUBKTNV-4" value="" style="rounded=0;html=1;jettySize=auto;orthogonalLoop=1;fontSize=11;endArrow=block;endFill=0;endSize=8;strokeWidth=1;shadow=0;labelBackgroundColor=none;edgeStyle=orthogonalEdgeStyle;" parent="WIyWlLk6GJQsqaUBKTNV-1" source="WIyWlLk6GJQsqaUBKTNV-6" target="WIyWlLk6GJQsqaUBKTNV-10" edge="1">
          <mxGeometry y="20" relative="1" as="geometry">
            <mxPoint as="offset" />
          </mxGeometry>
        </mxCell>
        <mxCell id="IfrZgiF8gO8FJ9o0qoM8-8" value="" style="edgeStyle=orthogonalEdgeStyle;rounded=0;orthogonalLoop=1;jettySize=auto;html=1;" edge="1" parent="WIyWlLk6GJQsqaUBKTNV-1" source="WIyWlLk6GJQsqaUBKTNV-6" target="IfrZgiF8gO8FJ9o0qoM8-7">
          <mxGeometry relative="1" as="geometry" />
        </mxCell>
        <mxCell id="WIyWlLk6GJQsqaUBKTNV-6" value="create_track" style="rhombus;whiteSpace=wrap;html=1;shadow=0;fontFamily=Helvetica;fontSize=12;align=center;strokeWidth=1;spacing=6;spacingTop=-4;" parent="WIyWlLk6GJQsqaUBKTNV-1" vertex="1">
          <mxGeometry x="40" y="270" width="100" height="80" as="geometry" />
        </mxCell>
        <mxCell id="IfrZgiF8gO8FJ9o0qoM8-4" value="d" style="edgeStyle=orthogonalEdgeStyle;rounded=0;orthogonalLoop=1;jettySize=auto;html=1;" edge="1" parent="WIyWlLk6GJQsqaUBKTNV-1" source="WIyWlLk6GJQsqaUBKTNV-10" target="IfrZgiF8gO8FJ9o0qoM8-3">
          <mxGeometry relative="1" as="geometry" />
        </mxCell>
        <mxCell id="IfrZgiF8gO8FJ9o0qoM8-11" value="" style="edgeStyle=orthogonalEdgeStyle;rounded=0;orthogonalLoop=1;jettySize=auto;html=1;" edge="1" parent="WIyWlLk6GJQsqaUBKTNV-1" source="WIyWlLk6GJQsqaUBKTNV-10" target="IfrZgiF8gO8FJ9o0qoM8-10">
          <mxGeometry relative="1" as="geometry" />
        </mxCell>
        <mxCell id="WIyWlLk6GJQsqaUBKTNV-10" value="create_task" style="rhombus;whiteSpace=wrap;html=1;shadow=0;fontFamily=Helvetica;fontSize=12;align=center;strokeWidth=1;spacing=6;spacingTop=-4;" parent="WIyWlLk6GJQsqaUBKTNV-1" vertex="1">
          <mxGeometry x="40" y="375" width="100" height="80" as="geometry" />
        </mxCell>
        <mxCell id="IfrZgiF8gO8FJ9o0qoM8-14" value="" style="edgeStyle=orthogonalEdgeStyle;rounded=0;orthogonalLoop=1;jettySize=auto;html=1;" edge="1" parent="WIyWlLk6GJQsqaUBKTNV-1" source="IfrZgiF8gO8FJ9o0qoM8-3" target="IfrZgiF8gO8FJ9o0qoM8-13">
          <mxGeometry relative="1" as="geometry" />
        </mxCell>
        <mxCell id="IfrZgiF8gO8FJ9o0qoM8-17" value="" style="edgeStyle=orthogonalEdgeStyle;rounded=0;orthogonalLoop=1;jettySize=auto;html=1;" edge="1" parent="WIyWlLk6GJQsqaUBKTNV-1" source="IfrZgiF8gO8FJ9o0qoM8-3" target="IfrZgiF8gO8FJ9o0qoM8-16">
          <mxGeometry relative="1" as="geometry" />
        </mxCell>
        <mxCell id="IfrZgiF8gO8FJ9o0qoM8-3" value="create_badge" style="rhombus;whiteSpace=wrap;html=1;shadow=0;fontFamily=Helvetica;fontSize=12;align=center;strokeWidth=1;spacing=6;spacingTop=-4;" vertex="1" parent="WIyWlLk6GJQsqaUBKTNV-1">
          <mxGeometry x="40" y="485" width="100" height="80" as="geometry" />
        </mxCell>
        <mxCell id="IfrZgiF8gO8FJ9o0qoM8-7" value="delete_track" style="rhombus;whiteSpace=wrap;html=1;shadow=0;fontFamily=Helvetica;fontSize=12;align=center;strokeWidth=1;spacing=6;spacingTop=-4;" vertex="1" parent="WIyWlLk6GJQsqaUBKTNV-1">
          <mxGeometry x="170" y="270" width="100" height="80" as="geometry" />
        </mxCell>
        <mxCell id="IfrZgiF8gO8FJ9o0qoM8-9" value="Changed" style="text;html=1;align=center;verticalAlign=middle;resizable=0;points=[];autosize=1;strokeColor=none;fillColor=none;" vertex="1" parent="WIyWlLk6GJQsqaUBKTNV-1">
          <mxGeometry x="120" y="270" width="70" height="30" as="geometry" />
        </mxCell>
        <mxCell id="IfrZgiF8gO8FJ9o0qoM8-10" value="delete_task" style="rhombus;whiteSpace=wrap;html=1;shadow=0;fontFamily=Helvetica;fontSize=12;align=center;strokeWidth=1;spacing=6;spacingTop=-4;" vertex="1" parent="WIyWlLk6GJQsqaUBKTNV-1">
          <mxGeometry x="170" y="375" width="100" height="80" as="geometry" />
        </mxCell>
        <mxCell id="IfrZgiF8gO8FJ9o0qoM8-12" value="Changed" style="text;html=1;align=center;verticalAlign=middle;resizable=0;points=[];autosize=1;strokeColor=none;fillColor=none;" vertex="1" parent="WIyWlLk6GJQsqaUBKTNV-1">
          <mxGeometry x="120" y="375" width="70" height="30" as="geometry" />
        </mxCell>
        <mxCell id="IfrZgiF8gO8FJ9o0qoM8-13" value="delete_badge" style="rhombus;whiteSpace=wrap;html=1;shadow=0;fontFamily=Helvetica;fontSize=12;align=center;strokeWidth=1;spacing=6;spacingTop=-4;" vertex="1" parent="WIyWlLk6GJQsqaUBKTNV-1">
          <mxGeometry x="170" y="485" width="100" height="80" as="geometry" />
        </mxCell>
        <mxCell id="IfrZgiF8gO8FJ9o0qoM8-15" value="Changed" style="text;html=1;align=center;verticalAlign=middle;resizable=0;points=[];autosize=1;strokeColor=none;fillColor=none;" vertex="1" parent="WIyWlLk6GJQsqaUBKTNV-1">
          <mxGeometry x="120" y="483" width="70" height="30" as="geometry" />
        </mxCell>
        <mxCell id="IfrZgiF8gO8FJ9o0qoM8-19" value="" style="edgeStyle=orthogonalEdgeStyle;rounded=0;orthogonalLoop=1;jettySize=auto;html=1;" edge="1" parent="WIyWlLk6GJQsqaUBKTNV-1" source="IfrZgiF8gO8FJ9o0qoM8-16" target="IfrZgiF8gO8FJ9o0qoM8-18">
          <mxGeometry relative="1" as="geometry" />
        </mxCell>
        <mxCell id="IfrZgiF8gO8FJ9o0qoM8-33" value="" style="edgeStyle=orthogonalEdgeStyle;rounded=0;orthogonalLoop=1;jettySize=auto;html=1;" edge="1" parent="WIyWlLk6GJQsqaUBKTNV-1" source="IfrZgiF8gO8FJ9o0qoM8-16" target="IfrZgiF8gO8FJ9o0qoM8-32">
          <mxGeometry relative="1" as="geometry" />
        </mxCell>
        <mxCell id="IfrZgiF8gO8FJ9o0qoM8-16" value="create_member" style="rhombus;whiteSpace=wrap;html=1;shadow=0;fontFamily=Helvetica;fontSize=12;align=center;strokeWidth=1;spacing=6;spacingTop=-4;" vertex="1" parent="WIyWlLk6GJQsqaUBKTNV-1">
          <mxGeometry x="40" y="605" width="100" height="80" as="geometry" />
        </mxCell>
        <mxCell id="IfrZgiF8gO8FJ9o0qoM8-18" value="delete_member" style="rhombus;whiteSpace=wrap;html=1;shadow=0;fontFamily=Helvetica;fontSize=12;align=center;strokeWidth=1;spacing=6;spacingTop=-4;" vertex="1" parent="WIyWlLk6GJQsqaUBKTNV-1">
          <mxGeometry x="170" y="605" width="100" height="80" as="geometry" />
        </mxCell>
        <mxCell id="IfrZgiF8gO8FJ9o0qoM8-20" value="Done" style="text;html=1;align=center;verticalAlign=middle;resizable=0;points=[];autosize=1;strokeColor=none;fillColor=none;" vertex="1" parent="WIyWlLk6GJQsqaUBKTNV-1">
          <mxGeometry x="130" y="605" width="50" height="30" as="geometry" />
        </mxCell>
        <mxCell id="IfrZgiF8gO8FJ9o0qoM8-29" value="" style="edgeStyle=orthogonalEdgeStyle;rounded=0;orthogonalLoop=1;jettySize=auto;html=1;" edge="1" parent="WIyWlLk6GJQsqaUBKTNV-1" source="IfrZgiF8gO8FJ9o0qoM8-26">
          <mxGeometry relative="1" as="geometry">
            <mxPoint x="370" y="180" as="targetPoint" />
          </mxGeometry>
        </mxCell>
        <mxCell id="IfrZgiF8gO8FJ9o0qoM8-54" style="edgeStyle=orthogonalEdgeStyle;rounded=0;orthogonalLoop=1;jettySize=auto;html=1;exitX=0.5;exitY=1;exitDx=0;exitDy=0;entryX=0.5;entryY=0;entryDx=0;entryDy=0;" edge="1" parent="WIyWlLk6GJQsqaUBKTNV-1" source="IfrZgiF8gO8FJ9o0qoM8-26" target="WIyWlLk6GJQsqaUBKTNV-3">
          <mxGeometry relative="1" as="geometry" />
        </mxCell>
        <mxCell id="IfrZgiF8gO8FJ9o0qoM8-57" style="edgeStyle=orthogonalEdgeStyle;rounded=0;orthogonalLoop=1;jettySize=auto;html=1;exitX=0.5;exitY=1;exitDx=0;exitDy=0;entryX=0.5;entryY=0;entryDx=0;entryDy=0;" edge="1" parent="WIyWlLk6GJQsqaUBKTNV-1" source="IfrZgiF8gO8FJ9o0qoM8-26" target="IfrZgiF8gO8FJ9o0qoM8-56">
          <mxGeometry relative="1" as="geometry" />
        </mxCell>
        <mxCell id="IfrZgiF8gO8FJ9o0qoM8-26" value="send_email, verify_otp" style="rounded=0;whiteSpace=wrap;html=1;" vertex="1" parent="WIyWlLk6GJQsqaUBKTNV-1">
          <mxGeometry x="310" y="40" width="120" height="60" as="geometry" />
        </mxCell>
        <mxCell id="IfrZgiF8gO8FJ9o0qoM8-38" value="" style="edgeStyle=orthogonalEdgeStyle;rounded=0;orthogonalLoop=1;jettySize=auto;html=1;" edge="1" parent="WIyWlLk6GJQsqaUBKTNV-1" source="IfrZgiF8gO8FJ9o0qoM8-31">
          <mxGeometry relative="1" as="geometry">
            <mxPoint x="370" y="260" as="targetPoint" />
          </mxGeometry>
        </mxCell>
        <mxCell id="IfrZgiF8gO8FJ9o0qoM8-31" value="Mentor&lt;br&gt;/member/" style="rounded=1;whiteSpace=wrap;html=1;" vertex="1" parent="WIyWlLk6GJQsqaUBKTNV-1">
          <mxGeometry x="310" y="180" width="120" height="40" as="geometry" />
        </mxCell>
        <mxCell id="IfrZgiF8gO8FJ9o0qoM8-32" value="assign_mentor" style="rhombus;whiteSpace=wrap;html=1;shadow=0;fontFamily=Helvetica;fontSize=12;align=center;strokeWidth=1;spacing=6;spacingTop=-4;" vertex="1" parent="WIyWlLk6GJQsqaUBKTNV-1">
          <mxGeometry x="40" y="725" width="100" height="80" as="geometry" />
        </mxCell>
        <mxCell id="IfrZgiF8gO8FJ9o0qoM8-41" value="" style="edgeStyle=orthogonalEdgeStyle;rounded=0;orthogonalLoop=1;jettySize=auto;html=1;" edge="1" parent="WIyWlLk6GJQsqaUBKTNV-1" source="IfrZgiF8gO8FJ9o0qoM8-39" target="IfrZgiF8gO8FJ9o0qoM8-40">
          <mxGeometry relative="1" as="geometry" />
        </mxCell>
        <mxCell id="IfrZgiF8gO8FJ9o0qoM8-51" value="" style="edgeStyle=orthogonalEdgeStyle;rounded=0;orthogonalLoop=1;jettySize=auto;html=1;" edge="1" parent="WIyWlLk6GJQsqaUBKTNV-1" source="IfrZgiF8gO8FJ9o0qoM8-39" target="IfrZgiF8gO8FJ9o0qoM8-47">
          <mxGeometry relative="1" as="geometry" />
        </mxCell>
        <mxCell id="IfrZgiF8gO8FJ9o0qoM8-39" value="mentee_details" style="rhombus;whiteSpace=wrap;html=1;shadow=0;fontFamily=Helvetica;fontSize=12;align=center;strokeWidth=1;spacing=6;spacingTop=-4;" vertex="1" parent="WIyWlLk6GJQsqaUBKTNV-1">
          <mxGeometry x="320" y="260" width="100" height="80" as="geometry" />
        </mxCell>
        <mxCell id="IfrZgiF8gO8FJ9o0qoM8-40" value="mentee_tasks" style="rhombus;whiteSpace=wrap;html=1;shadow=0;fontFamily=Helvetica;fontSize=12;align=center;strokeWidth=1;spacing=6;spacingTop=-4;" vertex="1" parent="WIyWlLk6GJQsqaUBKTNV-1">
          <mxGeometry x="320" y="375" width="100" height="80" as="geometry" />
        </mxCell>
        <mxCell id="IfrZgiF8gO8FJ9o0qoM8-45" value="" style="edgeStyle=orthogonalEdgeStyle;rounded=0;orthogonalLoop=1;jettySize=auto;html=1;" edge="1" parent="WIyWlLk6GJQsqaUBKTNV-1" source="IfrZgiF8gO8FJ9o0qoM8-42" target="IfrZgiF8gO8FJ9o0qoM8-44">
          <mxGeometry relative="1" as="geometry" />
        </mxCell>
        <mxCell id="IfrZgiF8gO8FJ9o0qoM8-42" value="pause_task" style="rhombus;whiteSpace=wrap;html=1;shadow=0;fontFamily=Helvetica;fontSize=12;align=center;strokeWidth=1;spacing=6;spacingTop=-4;" vertex="1" parent="WIyWlLk6GJQsqaUBKTNV-1">
          <mxGeometry x="320" y="483" width="100" height="80" as="geometry" />
        </mxCell>
        <mxCell id="IfrZgiF8gO8FJ9o0qoM8-44" value="resume_task" style="rhombus;whiteSpace=wrap;html=1;shadow=0;fontFamily=Helvetica;fontSize=12;align=center;strokeWidth=1;spacing=6;spacingTop=-4;" vertex="1" parent="WIyWlLk6GJQsqaUBKTNV-1">
          <mxGeometry x="320" y="603" width="100" height="80" as="geometry" />
        </mxCell>
        <mxCell id="IfrZgiF8gO8FJ9o0qoM8-46" value="" style="endArrow=classic;html=1;rounded=0;exitX=0.5;exitY=1;exitDx=0;exitDy=0;entryX=0.5;entryY=0;entryDx=0;entryDy=0;" edge="1" parent="WIyWlLk6GJQsqaUBKTNV-1" source="IfrZgiF8gO8FJ9o0qoM8-40" target="IfrZgiF8gO8FJ9o0qoM8-42">
          <mxGeometry width="50" height="50" relative="1" as="geometry">
            <mxPoint x="450" y="505" as="sourcePoint" />
            <mxPoint x="500" y="455" as="targetPoint" />
          </mxGeometry>
        </mxCell>
        <mxCell id="IfrZgiF8gO8FJ9o0qoM8-50" value="" style="edgeStyle=orthogonalEdgeStyle;rounded=0;orthogonalLoop=1;jettySize=auto;html=1;" edge="1" parent="WIyWlLk6GJQsqaUBKTNV-1" source="IfrZgiF8gO8FJ9o0qoM8-47" target="IfrZgiF8gO8FJ9o0qoM8-49">
          <mxGeometry relative="1" as="geometry" />
        </mxCell>
        <mxCell id="IfrZgiF8gO8FJ9o0qoM8-47" value="pending_review" style="rhombus;whiteSpace=wrap;html=1;shadow=0;fontFamily=Helvetica;fontSize=12;align=center;strokeWidth=1;spacing=6;spacingTop=-4;" vertex="1" parent="WIyWlLk6GJQsqaUBKTNV-1">
          <mxGeometry x="460" y="375" width="100" height="80" as="geometry" />
        </mxCell>
        <mxCell id="IfrZgiF8gO8FJ9o0qoM8-53" value="" style="edgeStyle=orthogonalEdgeStyle;rounded=0;orthogonalLoop=1;jettySize=auto;html=1;" edge="1" parent="WIyWlLk6GJQsqaUBKTNV-1" source="IfrZgiF8gO8FJ9o0qoM8-49" target="IfrZgiF8gO8FJ9o0qoM8-52">
          <mxGeometry relative="1" as="geometry" />
        </mxCell>
        <mxCell id="IfrZgiF8gO8FJ9o0qoM8-49" value="display_submisson" style="rhombus;whiteSpace=wrap;html=1;shadow=0;fontFamily=Helvetica;fontSize=12;align=center;strokeWidth=1;spacing=6;spacingTop=-4;" vertex="1" parent="WIyWlLk6GJQsqaUBKTNV-1">
          <mxGeometry x="460" y="484" width="100" height="80" as="geometry" />
        </mxCell>
        <mxCell id="IfrZgiF8gO8FJ9o0qoM8-52" value="mentor_eval" style="rhombus;whiteSpace=wrap;html=1;shadow=0;fontFamily=Helvetica;fontSize=12;align=center;strokeWidth=1;spacing=6;spacingTop=-4;" vertex="1" parent="WIyWlLk6GJQsqaUBKTNV-1">
          <mxGeometry x="460" y="603" width="100" height="80" as="geometry" />
        </mxCell>
        <mxCell id="IfrZgiF8gO8FJ9o0qoM8-79" value="" style="edgeStyle=orthogonalEdgeStyle;rounded=0;orthogonalLoop=1;jettySize=auto;html=1;" edge="1" parent="WIyWlLk6GJQsqaUBKTNV-1" source="IfrZgiF8gO8FJ9o0qoM8-56" target="IfrZgiF8gO8FJ9o0qoM8-59">
          <mxGeometry relative="1" as="geometry" />
        </mxCell>
        <mxCell id="IfrZgiF8gO8FJ9o0qoM8-56" value="Mentee&lt;div&gt;/member/&lt;/div&gt;" style="rounded=1;whiteSpace=wrap;html=1;" vertex="1" parent="WIyWlLk6GJQsqaUBKTNV-1">
          <mxGeometry x="650" y="180" width="120" height="40" as="geometry" />
        </mxCell>
        <mxCell id="IfrZgiF8gO8FJ9o0qoM8-59" value="display_tracks&lt;br&gt;select_track" style="rhombus;whiteSpace=wrap;html=1;shadow=0;fontFamily=Helvetica;fontSize=12;align=center;strokeWidth=1;spacing=6;spacingTop=-4;" vertex="1" parent="WIyWlLk6GJQsqaUBKTNV-1">
          <mxGeometry x="660" y="250" width="100" height="80" as="geometry" />
        </mxCell>
        <mxCell id="IfrZgiF8gO8FJ9o0qoM8-63" value="" style="edgeStyle=orthogonalEdgeStyle;rounded=0;orthogonalLoop=1;jettySize=auto;html=1;" edge="1" parent="WIyWlLk6GJQsqaUBKTNV-1" source="IfrZgiF8gO8FJ9o0qoM8-60" target="IfrZgiF8gO8FJ9o0qoM8-62">
          <mxGeometry relative="1" as="geometry" />
        </mxCell>
        <mxCell id="IfrZgiF8gO8FJ9o0qoM8-67" value="" style="edgeStyle=orthogonalEdgeStyle;rounded=0;orthogonalLoop=1;jettySize=auto;html=1;" edge="1" parent="WIyWlLk6GJQsqaUBKTNV-1" source="IfrZgiF8gO8FJ9o0qoM8-60" target="IfrZgiF8gO8FJ9o0qoM8-66">
          <mxGeometry relative="1" as="geometry" />
        </mxCell>
        <mxCell id="IfrZgiF8gO8FJ9o0qoM8-60" value="member_details&lt;br&gt;display_member_tasks&lt;br&gt;badges_earned" style="rhombus;whiteSpace=wrap;html=1;shadow=0;fontFamily=Helvetica;fontSize=12;align=center;strokeWidth=1;spacing=6;spacingTop=-4;" vertex="1" parent="WIyWlLk6GJQsqaUBKTNV-1">
          <mxGeometry x="660" y="360" width="100" height="80" as="geometry" />
        </mxCell>
        <mxCell id="IfrZgiF8gO8FJ9o0qoM8-65" value="" style="edgeStyle=orthogonalEdgeStyle;rounded=0;orthogonalLoop=1;jettySize=auto;html=1;" edge="1" parent="WIyWlLk6GJQsqaUBKTNV-1" source="IfrZgiF8gO8FJ9o0qoM8-62" target="IfrZgiF8gO8FJ9o0qoM8-64">
          <mxGeometry relative="1" as="geometry" />
        </mxCell>
        <mxCell id="IfrZgiF8gO8FJ9o0qoM8-62" value="customize" style="rhombus;whiteSpace=wrap;html=1;shadow=0;fontFamily=Helvetica;fontSize=12;align=center;strokeWidth=1;spacing=6;spacingTop=-4;" vertex="1" parent="WIyWlLk6GJQsqaUBKTNV-1">
          <mxGeometry x="720" y="485" width="100" height="80" as="geometry" />
        </mxCell>
        <mxCell id="IfrZgiF8gO8FJ9o0qoM8-64" value="track_leaderboard&lt;br&gt;points_leaderboard" style="rhombus;whiteSpace=wrap;html=1;shadow=0;fontFamily=Helvetica;fontSize=12;align=center;strokeWidth=1;spacing=6;spacingTop=-4;" vertex="1" parent="WIyWlLk6GJQsqaUBKTNV-1">
          <mxGeometry x="720" y="603" width="100" height="80" as="geometry" />
        </mxCell>
        <mxCell id="IfrZgiF8gO8FJ9o0qoM8-69" value="" style="edgeStyle=orthogonalEdgeStyle;rounded=0;orthogonalLoop=1;jettySize=auto;html=1;" edge="1" parent="WIyWlLk6GJQsqaUBKTNV-1" source="IfrZgiF8gO8FJ9o0qoM8-66" target="IfrZgiF8gO8FJ9o0qoM8-68">
          <mxGeometry relative="1" as="geometry" />
        </mxCell>
        <mxCell id="IfrZgiF8gO8FJ9o0qoM8-66" value="display_track_tasks" style="rhombus;whiteSpace=wrap;html=1;shadow=0;fontFamily=Helvetica;fontSize=12;align=center;strokeWidth=1;spacing=6;spacingTop=-4;" vertex="1" parent="WIyWlLk6GJQsqaUBKTNV-1">
          <mxGeometry x="590" y="485" width="100" height="80" as="geometry" />
        </mxCell>
        <mxCell id="IfrZgiF8gO8FJ9o0qoM8-75" value="" style="edgeStyle=orthogonalEdgeStyle;rounded=0;orthogonalLoop=1;jettySize=auto;html=1;" edge="1" parent="WIyWlLk6GJQsqaUBKTNV-1" source="IfrZgiF8gO8FJ9o0qoM8-68" target="IfrZgiF8gO8FJ9o0qoM8-74">
          <mxGeometry relative="1" as="geometry" />
        </mxCell>
        <mxCell id="IfrZgiF8gO8FJ9o0qoM8-68" value="task_details&lt;br&gt;start_task&lt;br&gt;task_leaderboard" style="rhombus;whiteSpace=wrap;html=1;shadow=0;fontFamily=Helvetica;fontSize=12;align=center;strokeWidth=1;spacing=6;spacingTop=-4;" vertex="1" parent="WIyWlLk6GJQsqaUBKTNV-1">
          <mxGeometry x="590" y="605" width="100" height="80" as="geometry" />
        </mxCell>
        <mxCell id="IfrZgiF8gO8FJ9o0qoM8-70" value="Tasks" style="text;html=1;align=center;verticalAlign=middle;resizable=0;points=[];autosize=1;strokeColor=none;fillColor=none;" vertex="1" parent="WIyWlLk6GJQsqaUBKTNV-1">
          <mxGeometry x="625" y="438" width="50" height="30" as="geometry" />
        </mxCell>
        <mxCell id="IfrZgiF8gO8FJ9o0qoM8-71" value="Profile" style="text;html=1;align=center;verticalAlign=middle;resizable=0;points=[];autosize=1;strokeColor=none;fillColor=none;" vertex="1" parent="WIyWlLk6GJQsqaUBKTNV-1">
          <mxGeometry x="750" y="440" width="60" height="30" as="geometry" />
        </mxCell>
        <mxCell id="IfrZgiF8gO8FJ9o0qoM8-72" value="Review tasks" style="text;html=1;align=center;verticalAlign=middle;resizable=0;points=[];autosize=1;strokeColor=none;fillColor=none;" vertex="1" parent="WIyWlLk6GJQsqaUBKTNV-1">
          <mxGeometry x="430" y="270" width="90" height="30" as="geometry" />
        </mxCell>
        <mxCell id="IfrZgiF8gO8FJ9o0qoM8-74" value="submit_task" style="rhombus;whiteSpace=wrap;html=1;shadow=0;fontFamily=Helvetica;fontSize=12;align=center;strokeWidth=1;spacing=6;spacingTop=-4;" vertex="1" parent="WIyWlLk6GJQsqaUBKTNV-1">
          <mxGeometry x="590" y="725" width="100" height="80" as="geometry" />
        </mxCell>
        <mxCell id="IfrZgiF8gO8FJ9o0qoM8-83" style="edgeStyle=orthogonalEdgeStyle;rounded=0;orthogonalLoop=1;jettySize=auto;html=1;exitX=0.5;exitY=1;exitDx=0;exitDy=0;entryX=0.502;entryY=-0.038;entryDx=0;entryDy=0;entryPerimeter=0;" edge="1" parent="WIyWlLk6GJQsqaUBKTNV-1" source="IfrZgiF8gO8FJ9o0qoM8-59" target="IfrZgiF8gO8FJ9o0qoM8-60">
          <mxGeometry relative="1" as="geometry" />
        </mxCell>
      </root>
    </mxGraphModel>
  </diagram>
</mxfile>
